<svg width="17" height="18" viewBox="0 0 17 18" fill="none" xmlns="http://www.w3.org/2000/svg">
<path d="M4.46447 13.3934C4.1192 13.0481 3.77163 12.6637 3.42176 12.2402C3.06729 11.8121 2.73353 11.3586 2.42049 10.8799C2.10284 10.4057 1.81051 9.91081 1.54351 9.39521C1.26729 8.87961 1.03712 8.3548 0.852974 7.82079C0.664228 7.29138 0.528423 6.75967 0.445559 6.22566C0.353487 5.69164 0.328168 5.16914 0.3696 4.65814C0.406428 4.22541 0.505405 3.80879 0.666529 3.40828C0.82305 3.01237 1.05783 2.6579 1.37087 2.34486L2.25476 1.46097C2.4389 1.27683 2.64606 1.13872 2.87624 1.04665C3.10642 0.95458 3.3412 0.908545 3.58058 0.908545C3.81997 0.908545 4.05475 0.95458 4.28493 1.04665C4.51511 1.13872 4.72227 1.27683 4.90641 1.46097L6.67417 3.22874C6.85832 3.41288 6.99642 3.62004 7.0885 3.85022C7.18057 4.0804 7.2266 4.31518 7.2266 4.55456C7.2266 4.79395 7.18057 5.02873 7.0885 5.25891C6.99642 5.48909 6.85832 5.69625 6.67417 5.88039L5.79029 6.76427C5.6706 6.88397 5.61075 7.03128 5.61075 7.20621C5.61075 7.38115 5.6706 7.52846 5.79029 7.64816L10.2097 12.0676C10.3294 12.1873 10.4767 12.2471 10.6517 12.2471C10.8266 12.2471 10.9739 12.1873 11.0936 12.0676L11.9775 11.1837C12.1616 10.9995 12.3688 10.8614 12.599 10.7694C12.8291 10.6773 13.0639 10.6313 13.3033 10.6313C13.5427 10.6313 13.7775 10.6773 14.0076 10.7694C14.2378 10.8614 14.445 10.9995 14.6291 11.1837L16.3969 12.9515C16.581 13.1356 16.7191 13.3428 16.8112 13.5729C16.9033 13.8031 16.9493 14.0379 16.9493 14.2773C16.9493 14.5167 16.9033 14.7514 16.8112 14.9816C16.7191 15.2118 16.581 15.419 16.3969 15.6031L15.513 16.487C15.2 16.8 14.8455 17.0348 14.4496 17.1913C14.0491 17.3525 13.6325 17.4514 13.1997 17.4883C12.6887 17.5297 12.1685 17.5067 11.6391 17.4192C11.1005 17.3317 10.5665 17.1936 10.0371 17.0049C9.50306 16.8207 8.98056 16.5929 8.46956 16.3213C7.94936 16.0497 7.45218 15.755 6.97801 15.4374C6.49924 15.1243 6.04809 14.7929 5.62456 14.443C5.20104 14.0931 4.81434 13.7433 4.46447 13.3934ZM2.25476 3.22874C2.01537 3.46812 1.84734 3.75124 1.75067 4.0781C1.64939 4.40955 1.60105 4.75252 1.60566 5.10699C1.60105 5.46147 1.63558 5.81364 1.70924 6.16351C1.77829 6.51798 1.85655 6.84023 1.94402 7.13026C2.09593 7.62284 2.29159 8.11312 2.53097 8.60109C2.76575 9.08447 3.03276 9.55403 3.33199 10.0098C3.62662 10.4701 3.94657 10.9098 4.29183 11.3287C4.6325 11.7522 4.98467 12.1458 5.34835 12.5095C5.71203 12.8732 6.10564 13.2254 6.52916 13.566C6.94809 13.9113 7.38773 14.2312 7.84808 14.5259C8.30383 14.8251 8.7757 15.0944 9.26368 15.3338C9.74705 15.5686 10.235 15.7619 10.7276 15.9138C11.0176 16.0013 11.3399 16.0796 11.6944 16.1486C12.0442 16.2223 12.3987 16.2591 12.7578 16.2591C13.1076 16.2591 13.4483 16.2085 13.7798 16.1072C14.1066 16.0105 14.3897 15.8425 14.6291 15.6031L15.513 14.7192C15.6327 14.5995 15.6925 14.4522 15.6925 14.2773C15.6925 14.1023 15.6327 13.955 15.513 13.8353L13.7452 12.0676C13.6255 11.9479 13.4782 11.888 13.3033 11.888C13.1284 11.888 12.9811 11.9479 12.8614 12.0676L11.9775 12.9515C11.7933 13.1356 11.5862 13.2737 11.356 13.3658C11.1258 13.4578 10.891 13.5039 10.6517 13.5039C10.4123 13.5039 10.1775 13.4578 9.94731 13.3658C9.71713 13.2737 9.50997 13.1356 9.32583 12.9515L4.90641 8.53204C4.72227 8.3479 4.58416 8.14074 4.49209 7.91056C4.40002 7.68038 4.35398 7.4456 4.35398 7.20621C4.35398 6.96683 4.40002 6.73205 4.49209 6.50187C4.58416 6.27169 4.72227 6.06453 4.90641 5.88039L5.79029 4.99651C5.90998 4.87681 5.96983 4.7295 5.96983 4.55456C5.96983 4.37963 5.90998 4.23231 5.79029 4.11262L4.02252 2.34486C3.90283 2.22516 3.75552 2.16532 3.58058 2.16532C3.40565 2.16532 3.25833 2.22516 3.13864 2.34486L2.25476 3.22874Z" fill="white"/>
</svg>
