<svg width="20" height="9" viewBox="0 0 20 9" fill="none" xmlns="http://www.w3.org/2000/svg">
<path d="M10 0C10.4883 0 11.0059 0.0260417 11.5527 0.078125C12.1061 0.130208 12.6628 0.214844 13.2227 0.332031C13.7826 0.442708 14.3392 0.585938 14.8926 0.761719C15.4525 0.93099 15.9863 1.13932 16.4941 1.38672C17.002 1.6276 17.474 1.90755 17.9102 2.22656C18.3529 2.53906 18.7402 2.89062 19.0723 3.28125C19.3522 3.61328 19.5768 3.97786 19.7461 4.375C19.9154 4.76562 20 5.18229 20 5.625V6.875C20 7.13542 19.9512 7.37956 19.8535 7.60742C19.7559 7.83529 19.6224 8.03385 19.4531 8.20312C19.2839 8.3724 19.0853 8.50586 18.8574 8.60352C18.6296 8.70117 18.3854 8.75 18.125 8.75H15.625C15.3646 8.75 15.1204 8.70117 14.8926 8.60352C14.6647 8.50586 14.4661 8.3724 14.2969 8.20312C14.1276 8.03385 13.9941 7.83529 13.8965 7.60742C13.7988 7.37956 13.75 7.13542 13.75 6.875V5.625C13.75 5.45573 13.6882 5.30924 13.5645 5.18555C13.4408 5.06185 13.2943 5 13.125 5H6.875C6.70573 5 6.55924 5.06185 6.43555 5.18555C6.31185 5.30924 6.25 5.45573 6.25 5.625V6.875C6.25 7.13542 6.20117 7.37956 6.10352 7.60742C6.00586 7.83529 5.8724 8.03385 5.70312 8.20312C5.53385 8.3724 5.33529 8.50586 5.10742 8.60352C4.87956 8.70117 4.63542 8.75 4.375 8.75H1.875C1.61458 8.75 1.37044 8.70117 1.14258 8.60352C0.914714 8.50586 0.716146 8.3724 0.546875 8.20312C0.377604 8.03385 0.244141 7.83529 0.146484 7.60742C0.0488281 7.37956 0 7.13542 0 6.875V5.625C0 5.18229 0.0846354 4.76562 0.253906 4.375C0.423177 3.97786 0.647786 3.61328 0.927734 3.28125C1.25977 2.89062 1.64388 2.53906 2.08008 2.22656C2.52279 1.90755 2.99805 1.6276 3.50586 1.38672C4.01367 1.13932 4.54427 0.93099 5.09766 0.761719C5.65755 0.585938 6.21745 0.442708 6.77734 0.332031C7.33724 0.214844 7.89062 0.130208 8.4375 0.078125C8.98438 0.0260417 9.50521 0 10 0ZM18.75 5.625C18.75 5.28646 18.6686 4.96745 18.5059 4.66797C18.3431 4.36198 18.1348 4.08529 17.8809 3.83789C17.6335 3.58398 17.36 3.35938 17.0605 3.16406C16.7611 2.96224 16.4779 2.78971 16.2109 2.64648C15.7552 2.4056 15.2702 2.19727 14.7559 2.02148C14.248 1.8457 13.7272 1.70247 13.1934 1.5918C12.6595 1.47461 12.1224 1.38997 11.582 1.33789C11.0417 1.2793 10.5143 1.25 10 1.25C9.48568 1.25 8.95833 1.2793 8.41797 1.33789C7.8776 1.38997 7.34049 1.47461 6.80664 1.5918C6.27279 1.70247 5.7487 1.8457 5.23438 2.02148C4.72656 2.19727 4.24479 2.4056 3.78906 2.64648C3.52214 2.78971 3.23893 2.96224 2.93945 3.16406C2.63997 3.35938 2.36328 3.58398 2.10938 3.83789C1.86198 4.08529 1.6569 4.36198 1.49414 4.66797C1.33138 4.96745 1.25 5.28646 1.25 5.625V6.875C1.25 7.04427 1.31185 7.19076 1.43555 7.31445C1.55924 7.43815 1.70573 7.5 1.875 7.5H4.375C4.54427 7.5 4.69076 7.43815 4.81445 7.31445C4.93815 7.19076 5 7.04427 5 6.875V5.625C5 5.36458 5.04883 5.12044 5.14648 4.89258C5.24414 4.66471 5.3776 4.46615 5.54688 4.29688C5.71615 4.1276 5.91471 3.99414 6.14258 3.89648C6.37044 3.79883 6.61458 3.75 6.875 3.75H13.125C13.3854 3.75 13.6296 3.79883 13.8574 3.89648C14.0853 3.99414 14.2839 4.1276 14.4531 4.29688C14.6224 4.46615 14.7559 4.66471 14.8535 4.89258C14.9512 5.12044 15 5.36458 15 5.625V6.875C15 7.04427 15.0618 7.19076 15.1855 7.31445C15.3092 7.43815 15.4557 7.5 15.625 7.5H18.125C18.2943 7.5 18.4408 7.43815 18.5645 7.31445C18.6882 7.19076 18.75 7.04427 18.75 6.875V5.625Z" fill="white"/>
</svg>
