<svg width="32" height="30" viewBox="0 0 32 30" fill="none" xmlns="http://www.w3.org/2000/svg">
<path d="M10.3247 11.5928V22.5834C10.3247 24.3373 11.0657 24.4967 12.4086 24.4967L23.6213 24.5481L28.5457 29.9997V24.5481H29.5749C29.8945 24.5467 30.2107 24.4824 30.5055 24.359C30.8003 24.2355 31.0679 24.0551 31.2929 23.8283C31.518 23.6015 31.6961 23.3325 31.8172 23.0368C31.9382 22.7411 31.9999 22.4245 31.9985 22.1051V11.6391C31.9999 11.3196 31.9382 11.003 31.8172 10.7073C31.6961 10.4117 31.518 10.1428 31.2929 9.91602C31.0679 9.68903 30.8003 9.50885 30.5055 9.38528C30.2107 9.26178 29.8945 9.19751 29.5749 9.19617L12.7638 9.16016C12.1177 9.16016 11.498 9.41629 11.0409 9.87245C10.5835 10.3285 10.3259 10.9472 10.3247 11.5928Z" fill="#A2A2A2" fill-opacity="0.2"/>
<path d="M10.3247 11.3116V22.3022C10.3247 24.056 11.0657 24.2155 12.4086 24.2155L23.6213 24.2668L28.5457 29.7185V24.2668H29.5749C29.8945 24.2655 30.2107 24.2012 30.5055 24.0777C30.8003 23.9542 31.0679 23.7739 31.2929 23.5471C31.518 23.3203 31.6961 23.0512 31.8172 22.7556C31.9382 22.4599 31.9999 22.1433 31.9985 21.8238V11.3578C31.9999 11.0383 31.9382 10.7217 31.8172 10.4261C31.6961 10.1304 31.518 9.86156 31.2929 9.63477C31.0679 9.40778 30.8003 9.2276 30.5055 9.10403C30.2107 8.98053 29.8945 8.91626 29.5749 8.91492L12.7638 8.87891C12.1177 8.87891 11.498 9.13504 11.0409 9.5912C10.5835 10.0473 10.3259 10.666 10.3247 11.3116Z" fill="#A2A2A2" fill-opacity="0.2"/>
<path d="M10.3242 11.0323V22.0229C10.3242 23.7767 11.0652 23.9362 12.4081 23.9362L23.6208 23.9875L28.5452 29.4392V23.9875H29.5744C29.894 23.9862 30.2102 23.9219 30.505 23.7984C30.7998 23.6749 31.0674 23.4946 31.2924 23.2678C31.5175 23.041 31.6956 22.7719 31.8167 22.4763C31.9378 22.1806 31.9994 21.864 31.998 21.5445V11.0785C31.9994 10.7591 31.9378 10.4425 31.8167 10.1468C31.6956 9.85111 31.5175 9.58227 31.2924 9.35547C31.0674 9.12849 30.7998 8.94831 30.505 8.82473C30.2102 8.70123 29.894 8.63696 29.5744 8.63563L12.7633 8.59961C12.1172 8.59961 11.4975 8.85574 11.0404 9.3119C10.5831 9.76796 10.3254 10.3867 10.3242 11.0323Z" fill="#01F4FF"/>
<path d="M10.3242 11.0323V22.0229C10.3242 23.7767 11.0652 23.9362 12.4081 23.9362L23.6208 23.9875L28.5452 29.4392V23.9875H29.5744C29.894 23.9862 30.2102 23.9219 30.505 23.7984C30.7998 23.6749 31.0674 23.4946 31.2924 23.2678C31.5175 23.041 31.6956 22.7719 31.8167 22.4763C31.9378 22.1806 31.9994 21.864 31.998 21.5445V11.0785C31.9994 10.7591 31.9378 10.4425 31.8167 10.1468C31.6956 9.85111 31.5175 9.58227 31.2924 9.35547C31.0674 9.12849 30.7998 8.94831 30.505 8.82473C30.2102 8.70123 29.894 8.63696 29.5744 8.63563L12.7633 8.59961C12.1172 8.59961 11.4975 8.85574 11.0404 9.3119C10.5831 9.76796 10.3254 10.3867 10.3242 11.0323Z" fill="#00DFFF"/>
<path d="M24.7104 3.40825V15.9387C24.7104 17.9383 23.8657 18.12 22.3346 18.12L9.55091 18.1786L3.93658 24.394V18.1786H2.76324C2.39882 18.1771 2.03828 18.1038 1.70221 17.963C1.36612 17.8222 1.06107 17.6166 0.804489 17.358C0.547907 17.0994 0.344798 16.7927 0.206767 16.4556C0.0687367 16.1185 -0.00150952 15.7575 2.45958e-05 15.3933V3.46096C-0.00150952 3.09675 0.0687367 2.7358 0.206767 2.3987C0.344798 2.06161 0.547907 1.7551 0.804489 1.49653C1.06107 1.23774 1.36612 1.03232 1.70221 0.891427C2.03828 0.750624 2.39882 0.677348 2.76324 0.67583L21.9296 0.634766C22.6662 0.634766 23.3727 0.926786 23.8939 1.44685C24.4153 1.96681 24.709 2.67224 24.7104 3.40825Z" fill="#A2A2A2" fill-opacity="0.4"/>
<path d="M24.7104 3.0938V15.6242C24.7104 17.6238 23.8657 17.8056 22.3346 17.8056L9.55091 17.8641L3.93658 24.0796V17.8641H2.76324C2.39882 17.8626 2.03828 17.7893 1.70221 17.6485C1.36612 17.5077 1.06107 17.3021 0.804489 17.0435C0.547907 16.785 0.344798 16.4782 0.206767 16.1411C0.0687367 15.8041 -0.00150952 15.4431 2.45958e-05 15.0789V3.14651C-0.00150952 2.7823 0.0687367 2.42134 0.206767 2.08425C0.344798 1.74715 0.547907 1.44064 0.804489 1.18207C1.06107 0.923288 1.36612 0.717864 1.70221 0.576974C2.03828 0.436171 2.39882 0.362895 2.76324 0.361377L21.9296 0.320312C22.6662 0.320312 23.3727 0.612332 23.8939 1.1324C24.4153 1.65236 24.709 2.35778 24.7104 3.0938Z" fill="#A2A2A2" fill-opacity="0.6"/>
<path d="M24.7104 2.77348V15.3039C24.7104 17.3035 23.8657 17.4853 22.3346 17.4853L9.55091 17.5438L3.93658 23.7593V17.5438H2.76324C2.39882 17.5423 2.03828 17.469 1.70221 17.3282C1.36612 17.1874 1.06107 16.9818 0.804489 16.7232C0.547907 16.4647 0.344798 16.1579 0.206767 15.8208C0.0687367 15.4837 -0.00150952 15.1228 2.45958e-05 14.7586V2.8262C-0.00150952 2.46199 0.0687367 2.10103 0.206767 1.76394C0.344798 1.42684 0.547907 1.12033 0.804489 0.861762C1.06107 0.602975 1.36612 0.397552 1.70221 0.256662C2.03828 0.115858 2.39882 0.0425825 2.76324 0.041064L21.9296 0C22.6662 0 23.3727 0.29202 23.8939 0.812088C24.4153 1.33205 24.709 2.03747 24.7104 2.77348Z" fill="white"/>
<path d="M24.7104 2.77348V15.3039C24.7104 17.3035 23.8657 17.4853 22.3346 17.4853L9.55091 17.5438L3.93658 23.7593V17.5438H2.76324C2.39882 17.5423 2.03828 17.469 1.70221 17.3282C1.36612 17.1874 1.06107 16.9818 0.804489 16.7232C0.547907 16.4647 0.344798 16.1579 0.206767 15.8208C0.0687367 15.4837 -0.00150952 15.1228 2.45958e-05 14.7586V2.8262C-0.00150952 2.46199 0.0687367 2.10103 0.206767 1.76394C0.344798 1.42684 0.547907 1.12033 0.804489 0.861762C1.06107 0.602975 1.36612 0.397552 1.70221 0.256662C2.03828 0.115858 2.39882 0.0425825 2.76324 0.041064L21.9296 0C22.6662 0 23.3727 0.29202 23.8939 0.812088C24.4153 1.33205 24.709 2.03747 24.7104 2.77348Z" fill="#F9F9F9"/>
<path d="M4.40234 5.89294C4.40234 5.36524 4.84844 4.9375 5.39873 4.9375H19.348C19.8982 4.9375 20.3445 5.36524 20.3445 5.89294C20.3445 6.42084 19.8982 6.84858 19.348 6.84858H5.39873C4.84844 6.84858 4.40234 6.42084 4.40234 5.89294Z" fill="#8B8B8B" fill-opacity="0.3"/>
<path d="M4.40234 5.66323C4.40234 5.08765 4.84722 4.62109 5.396 4.62109H19.3071C19.8559 4.62109 20.3009 5.08765 20.3009 5.66323C20.3009 6.23903 19.8559 6.70558 19.3071 6.70558H5.396C4.84722 6.70558 4.40234 6.23903 4.40234 5.66323Z" fill="#8B8B8B" fill-opacity="0.6"/>
<path d="M4.40234 5.34682C4.40234 4.77124 4.84722 4.30469 5.396 4.30469H19.3071C19.8559 4.30469 20.3009 4.77124 20.3009 5.34682C20.3009 5.92262 19.8559 6.38918 19.3071 6.38918H5.396C4.84722 6.38918 4.40234 5.92262 4.40234 5.34682Z" fill="#0742AB"/>
<path d="M4.40234 10.35C4.40234 9.82227 4.77622 9.39453 5.23741 9.39453H16.9282C17.3894 9.39453 17.7634 9.82227 17.7634 10.35C17.7634 10.8779 17.3894 11.3056 16.9282 11.3056H5.23741C4.77622 11.3056 4.40234 10.8779 4.40234 10.35Z" fill="#8B8B8B" fill-opacity="0.3"/>
<path d="M4.40234 10.1183C4.40234 9.54273 4.7752 9.07617 5.23513 9.07617H16.894C17.3539 9.07617 17.7268 9.54273 17.7268 10.1183C17.7268 10.6941 17.3539 11.1607 16.894 11.1607H5.23513C4.7752 11.1607 4.40234 10.6941 4.40234 10.1183Z" fill="#8B8B8B" fill-opacity="0.6"/>
<path d="M4.40234 9.798C4.40234 9.22241 4.7752 8.75586 5.23513 8.75586H16.894C17.3539 8.75586 17.7268 9.22241 17.7268 9.798C17.7268 10.3738 17.3539 10.8404 16.894 10.8404H5.23513C4.7752 10.8404 4.40234 10.3738 4.40234 9.798Z" fill="#0742AB"/>
</svg>
