<?xml version="1.0" standalone="no"?>
<!DOCTYPE svg PUBLIC "-//W3C//DTD SVG 20010904//EN"
 "http://www.w3.org/TR/2001/REC-SVG-20010904/DTD/svg10.dtd">
<svg version="1.0" xmlns="http://www.w3.org/2000/svg"
 width="980.000000pt" height="980.000000pt" viewBox="0 0 980.000000 980.000000"
 preserveAspectRatio="xMidYMid meet">

<g transform="translate(0.000000,980.000000) scale(0.100000,-0.100000)"
fill="#000000" stroke="none">
<path d="M4560 9789 c-1035 -75 -1998 -463 -2800 -1128 -150 -123 -501 -475
-622 -621 -881 -1068 -1270 -2403 -1098 -3765 119 -934 501 -1801 1124 -2545
98 -117 370 -393 496 -504 1328 -1166 3158 -1531 4825 -962 895 305 1700 879
2281 1627 540 695 884 1519 993 2384 179 1408 -247 2798 -1185 3865 -112 128
-386 398 -509 501 -763 642 -1665 1026 -2665 1134 -174 19 -664 27 -840 14z
m703 -2444 c703 -77 1330 -365 1782 -819 303 -305 493 -643 579 -1027 273
-1234 -727 -2420 -2231 -2643 -344 -51 -754 -44 -1084 18 l-66 12 -109 -68
c-132 -83 -393 -214 -527 -263 -171 -63 -401 -115 -505 -115 l-44 0 54 62
c169 194 281 389 342 596 l15 52 -72 36 c-271 136 -608 409 -801 648 -447 552
-578 1222 -365 1860 103 312 271 577 524 832 450 453 1064 736 1780 819 160
18 556 18 728 0z"/>
<path d="M3550 5439 c-130 -58 -191 -203 -145 -340 31 -91 124 -164 223 -176
166 -19 318 133 299 299 -8 61 -51 141 -96 179 -73 60 -196 77 -281 38z"/>
<path d="M4839 5446 c-186 -66 -238 -305 -97 -445 52 -52 112 -75 193 -76 59
0 78 5 124 30 198 109 184 391 -24 486 -47 22 -143 24 -196 5z"/>
<path d="M6107 5445 c-90 -33 -159 -122 -172 -221 -22 -165 131 -320 296 -301
139 17 239 128 239 266 0 112 -59 205 -160 250 -53 24 -146 27 -203 6z"/>
</g>
</svg>
