<svg width="12" height="12" viewBox="0 0 12 12" fill="none" xmlns="http://www.w3.org/2000/svg">
<path d="M6 0C6.55417 0 7.08646 0.0708332 7.59688 0.2125C8.10729 0.354166 8.58542 0.555208 9.03125 0.815625C9.47708 1.07604 9.88229 1.38854 10.2469 1.75313C10.6115 2.11771 10.924 2.52292 11.1844 2.96875C11.4448 3.41458 11.6458 3.89271 11.7875 4.40312C11.9292 4.91354 12 5.44583 12 6C12 6.55417 11.9292 7.08646 11.7875 7.59687C11.6458 8.10729 11.4448 8.58542 11.1844 9.03125C10.924 9.47708 10.6115 9.88229 10.2469 10.2469C9.88229 10.6115 9.47708 10.924 9.03125 11.1844C8.58542 11.4448 8.10729 11.6458 7.59688 11.7875C7.08646 11.9292 6.55417 12 6 12C5.44583 12 4.91354 11.9292 4.40313 11.7875C3.89271 11.6458 3.41458 11.4448 2.96875 11.1844C2.52292 10.924 2.11771 10.6115 1.75313 10.2469C1.38854 9.88229 1.07604 9.47708 0.815625 9.03125C0.555208 8.58542 0.354167 8.10729 0.2125 7.59687C0.0708333 7.08646 0 6.55417 0 6C0 5.44583 0.0708333 4.91354 0.2125 4.40312C0.354167 3.89271 0.555208 3.41458 0.815625 2.96875C1.07604 2.52292 1.38854 2.11771 1.75313 1.75313C2.11771 1.38854 2.52292 1.07604 2.96875 0.815625C3.41458 0.555208 3.89271 0.354166 4.40313 0.2125C4.91354 0.0708332 5.44583 0 6 0ZM6 11.2C6.475 11.2 6.93438 11.1375 7.37813 11.0125C7.82188 10.8875 8.23646 10.7125 8.62187 10.4875C9.00729 10.2625 9.35833 9.99167 9.675 9.675C9.99167 9.35833 10.2625 9.00729 10.4875 8.62188C10.7125 8.23646 10.8875 7.82292 11.0125 7.38125C11.1375 6.93958 11.2 6.47917 11.2 6C11.2 5.525 11.1375 5.06562 11.0125 4.62187C10.8875 4.17812 10.7125 3.76354 10.4875 3.37813C10.2625 2.99271 9.99167 2.64167 9.675 2.325C9.35833 2.00833 9.00729 1.7375 8.62187 1.5125C8.23646 1.2875 7.82188 1.1125 7.37813 0.9875C6.93438 0.8625 6.475 0.8 6 0.8C5.52083 0.8 5.06042 0.8625 4.61875 0.9875C4.17708 1.1125 3.76354 1.2875 3.37812 1.5125C2.99271 1.7375 2.64167 2.00833 2.325 2.325C2.00833 2.64167 1.7375 2.99271 1.5125 3.37813C1.2875 3.76354 1.1125 4.17812 0.9875 4.62187C0.8625 5.06562 0.8 5.525 0.8 6C0.8 6.475 0.8625 6.93437 0.9875 7.37812C1.1125 7.82188 1.2875 8.23646 1.5125 8.62188C1.7375 9.00729 2.00833 9.35833 2.325 9.675C2.64167 9.99167 2.99271 10.2625 3.37812 10.4875C3.76354 10.7125 4.17708 10.8875 4.61875 11.0125C5.06042 11.1375 5.52083 11.2 6 11.2ZM5.6 7.2V3.2H6.4V7.2H5.6ZM5.6 8.8V8H6.4V8.8H5.6Z" fill="#A80000"/>
</svg>
