<svg width="16" height="16" viewBox="0 0 16 16" fill="none" xmlns="http://www.w3.org/2000/svg">
<path d="M11.8281 9.35156C11.9323 8.89323 11.9844 8.4375 11.9844 7.98438C11.9844 7.1875 11.8359 6.42708 11.5391 5.70312C11.2422 4.97396 10.8099 4.32552 10.2422 3.75781L10.9531 3.04688C11.2812 3.375 11.5729 3.73177 11.8281 4.11719C12.0833 4.4974 12.2969 4.89844 12.4688 5.32031C12.6406 5.73698 12.7708 6.17188 12.8594 6.625C12.9531 7.07292 13 7.53125 13 8C13 8.375 12.9688 8.74479 12.9062 9.10938C12.849 9.46875 12.763 9.82552 12.6484 10.1797L11.8281 9.35156ZM8.82812 5.17188C9.14062 5.48438 9.39062 5.83854 9.57812 6.23438C9.76562 6.625 9.88802 7.03906 9.94531 7.47656L8.23438 5.76562L8.82812 5.17188ZM14.1953 11.7188C14.4609 11.1354 14.6615 10.5312 14.7969 9.90625C14.9323 9.28125 15 8.64583 15 8C15 6.79167 14.7734 5.64323 14.3203 4.55469C13.8724 3.46615 13.2188 2.49479 12.3594 1.64062L13.0703 0.929688C13.5443 1.40365 13.9635 1.91406 14.3281 2.46094C14.6927 3.0026 14.9974 3.57292 15.2422 4.17188C15.4922 4.77083 15.6797 5.39323 15.8047 6.03906C15.9349 6.67969 16 7.33333 16 8C16 8.77604 15.9089 9.54167 15.7266 10.2969C15.5495 11.0469 15.2891 11.7708 14.9453 12.4688L14.1953 11.7188ZM6 2V3.52344L4.88281 2.40625L5.28906 2H6ZM0.148438 0.851562L0.851562 0.148438L15.8516 15.1484L15.1484 15.8516L6 6.71094V14H5.29688L2.28906 11H0L0 5H2.28906L3.28906 4L0.148438 0.851562ZM5 12.2891V5.71094L4 4.71094L2.71094 6H1V10H2.71094L5 12.2891Z" fill="#12769A"/>
</svg>
