<svg width="16" height="16" viewBox="0 0 16 16" fill="none" xmlns="http://www.w3.org/2000/svg">
<path d="M13.0703 0.929688C13.5391 1.39844 13.9531 1.90625 14.3125 2.45312C14.6771 3 14.9844 3.57552 15.2344 4.17969C15.4844 4.77865 15.6719 5.40104 15.7969 6.04688C15.9271 6.6875 15.9922 7.33854 15.9922 8C15.9922 8.66146 15.9271 9.3151 15.7969 9.96094C15.6719 10.6016 15.4844 11.224 15.2344 11.8281C14.9844 12.4271 14.6771 13 14.3125 13.5469C13.9531 14.0938 13.5391 14.6016 13.0703 15.0703L12.3672 14.3672C12.7891 13.9453 13.1615 13.4896 13.4844 13C13.8125 12.5052 14.0885 11.987 14.3125 11.4453C14.5365 10.9036 14.7057 10.3438 14.8203 9.76562C14.9401 9.18229 15 8.59375 15 8C15 7.40625 14.9401 6.82031 14.8203 6.24219C14.7057 5.65885 14.5365 5.09635 14.3125 4.55469C14.0885 4.01302 13.8125 3.4974 13.4844 3.00781C13.1615 2.51302 12.7891 2.05469 12.3672 1.63281L13.0703 0.929688ZM10.9531 3.04688C11.2812 3.375 11.5703 3.73177 11.8203 4.11719C12.0755 4.4974 12.2891 4.89844 12.4609 5.32031C12.638 5.74219 12.7708 6.17969 12.8594 6.63281C12.9531 7.08594 13 7.54167 13 8C13 8.46354 12.9531 8.92188 12.8594 9.375C12.7708 9.82292 12.638 10.2578 12.4609 10.6797C12.2891 11.1016 12.0755 11.5052 11.8203 11.8906C11.5703 12.2708 11.2812 12.625 10.9531 12.9531L10.2422 12.2422C10.8047 11.6797 11.237 11.0312 11.5391 10.2969C11.8464 9.5625 12 8.79688 12 8C12 7.20312 11.8464 6.4375 11.5391 5.70312C11.237 4.96875 10.8047 4.32031 10.2422 3.75781L10.9531 3.04688ZM8.82812 5.17188C9.20312 5.54688 9.49219 5.97917 9.69531 6.46875C9.89844 6.95833 10 7.46875 10 8C10 8.53125 9.89844 9.04167 9.69531 9.53125C9.49219 10.0208 9.20312 10.4531 8.82812 10.8281L8.125 10.125C8.40625 9.84375 8.6224 9.52083 8.77344 9.15625C8.92448 8.78646 9 8.40104 9 8C9 7.59896 8.92448 7.21615 8.77344 6.85156C8.6224 6.48177 8.40625 6.15625 8.125 5.875L8.82812 5.17188ZM5.28906 2H6V14H5.28906L2.28906 11H0L0 5H2.28906L5.28906 2ZM5 3.71094L2.71094 6H1V10H2.71094L5 12.2891V3.71094Z" fill="#12769A"/>
</svg>
